{
  "accessors": [
    {
      "bufferView": 2,
      "componentType": 5126,
      "count": 37621,
      "max": [
        0.8821769952774048,
        0.8098779916763306,
        0.98157799243927
      ],
      "min": [
        -0.8652529716491699,
        -0.7969470024108887,
        -1.0020140409469604
      ],
      "type": "VEC3"
    },
    {
      "bufferView": 2,
      "byteOffset": 451452,
      "componentType": 5126,
      "count": 37621,
      "max": [
        0.9999805688858032,
        0.9999421834945679,
        0.999995231628418
      ],
      "min": [
        -0.9999836683273315,
        -0.9999880790710449,
        -0.9999922513961792
      ],
      "type": "VEC3"
    },
    {
      "bufferView": 1,
      "componentType": 5126,
      "count": 37621,
      "max": [
        0.9936519861221313,
        0.9986289739608765
      ],
      "min": [
        0.001370999962091446,
        0.0014649999793618917
      ],
      "type": "VEC2"
    },
    {
      "bufferView": 0,
      "componentType": 5125,
      "count": 149991,
      "type": "SCALAR"
    }
  ],
  "asset": {
    "extras": {
      "author": "go3452 (https://sketchfab.com/go3452)",
      "license": "CC-BY-4.0 (http://creativecommons.org/licenses/by/4.0/)",
      "source": "https://sketchfab.com/3d-models/aloe--vera--plant-in--po-0903123850-b28d2637242d4aa183f9146819f2dcbf",
      "title": "Aloe_ Vera_ Plant_in_ Po_0903123850"
    },
    "generator": "Sketchfab-16.31.0",
    "version": "2.0"
  },
  "bufferViews": [
    {
      "buffer": 0,
      "byteLength": 599964,
      "name": "floatBufferViews",
      "target": 34963
    },
    {
      "buffer": 0,
      "byteLength": 300968,
      "byteOffset": 599964,
      "byteStride": 8,
      "name": "floatBufferViews",
      "target": 34962
    },
    {
      "buffer": 0,
      "byteLength": 902904,
      "byteOffset": 900932,
      "byteStride": 12,
      "name": "floatBufferViews",
      "target": 34962
    }
  ],
  "buffers": [
    {
      "byteLength": 1803836,
      "uri": "scene.bin"
    }
  ],
  "images": [
    {
      "uri": "textures/Material_0_baseColor.jpeg"
    }
  ],
  "materials": [
    {
      "doubleSided": true,
      "name": "Material_0",
      "pbrMetallicRoughness": {
        "baseColorTexture": {
          "index": 0
        },
        "metallicFactor": 0.0,
        "roughnessFactor": 0.8750500300280308
      }
    }
  ],
  "meshes": [
    {
      "name": "Object_0",
      "primitives": [
        {
          "attributes": {
            "NORMAL": 1,
            "POSITION": 0,
            "TEXCOORD_0": 2
          },
          "indices": 3,
          "material": 0,
          "mode": 4
        }
      ]
    }
  ],
  "nodes": [
    {
      "children": [
        1
      ],
      "matrix": [
        1.0,
        0.0,
        0.0,
        0.0,
        0.0,
        2.220446049250313e-16,
        -1.0,
        0.0,
        0.0,
        1.0,
        2.220446049250313e-16,
        0.0,
        0.0,
        0.0,
        0.0,
        1.0
      ],
      "name": "Sketchfab_model"
    },
    {
      "children": [
        2
      ],
      "name": "Aloe_Vera_Plant_in_Po_0903123850.obj.cleaner.materialmerger.gles"
    },
    {
      "mesh": 0,
      "name": "Object_2"
    }
  ],
  "samplers": [
    {
      "magFilter": 9729,
      "minFilter": 9987,
      "wrapS": 10497,
      "wrapT": 10497
    }
  ],
  "scene": 0,
  "scenes": [
    {
      "name": "Sketchfab_Scene",
      "nodes": [
        0
      ]
    }
  ],
  "textures": [
    {
      "sampler": 0,
      "source": 0
    }
  ]
}
